<?xml version="1.0" encoding="UTF-8"?>
<svg width="66px" height="66px" viewBox="0 0 66 66" version="1.1" xmlns="http://www.w3.org/2000/svg" xmlns:xlink="http://www.w3.org/1999/xlink">
    <!-- Generator: Sketch 49.1 (51147) - http://www.bohemiancoding.com/sketch -->
    <title>Artboard 2 Copy 4</title>
    <desc>Created with Sketch.</desc>
    <defs></defs>
    <g id="Artboard-2-Copy-4" stroke="none" stroke-width="1" fill="none" fill-rule="evenodd">
        <g id="Group-23" transform="translate(2.000000, 2.000000)">
            <circle id="Oval-3-Copy-7" stroke="#4E0F41" stroke-width="3" fill="#FFC000" cx="31.5" cy="31.5" r="31.5"></circle>
            <path d="M50.040755,38.3014424 C50.1649095,38.5249206 50.1959477,38.754603 50.1338704,38.9904966 C50.0717931,39.2263902 49.9414329,39.4064115 49.7427856,39.530566 L49.4075701,39.6795507 C49.2089229,39.8037052 48.9978633,39.8223281 48.7743852,39.73542 C48.5509071,39.6485118 48.3770933,39.493321 48.2529388,39.2698428 L46.4651227,35.9549337 C46.1919827,37.8669133 45.6022576,39.6360887 44.6959296,41.2625129 C43.7896016,42.8889371 42.6473972,44.2980698 41.269282,45.4899532 C39.8911668,46.6818366 38.333051,47.6129815 36.5948877,48.2834159 C34.8567244,48.9538503 33.0192651,49.2890625 31.0824546,49.2890625 C29.1456441,49.2890625 27.3081847,48.9538503 25.5700215,48.2834159 C23.8318582,47.6129815 22.2737423,46.6818366 20.8956272,45.4899532 C19.517512,44.2980698 18.3753075,42.8889371 17.4689795,41.2625129 C16.5626515,39.6360887 15.9729264,37.8669133 15.6997865,35.9549337 L13.9119703,39.2698428 C13.7878158,39.493321 13.6140021,39.6485118 13.3905239,39.73542 C13.1670458,39.8223281 12.9559863,39.8037052 12.7573391,39.6795507 L12.4221235,39.530566 C12.2234763,39.4064115 12.093116,39.2263902 12.0310388,38.9904966 C11.9689615,38.754603 11.9999997,38.5249206 12.1241542,38.3014424 L15.1783401,32.6772708 L15.4018171,32.2675629 C15.4763098,32.1682393 15.5570091,32.0875401 15.6439172,32.0254628 C15.7308254,31.9633856 15.8363551,31.9199321 15.9605097,31.8951012 C16.0598333,31.8702703 16.165363,31.8640627 16.2771021,31.8764781 C16.3888412,31.8888936 16.4943709,31.932347 16.5936945,32.0068397 L16.9661562,32.2303168 L22.404097,35.9176876 C22.6027443,36.0418421 22.7331045,36.2218634 22.7951818,36.457757 C22.8572591,36.6936506 22.8262209,36.923333 22.7020664,37.1468112 L22.4413432,37.4075344 C22.3171887,37.6061816 22.1371673,37.717919 21.9012737,37.7427499 C21.6653801,37.7675808 21.448113,37.7179197 21.2494658,37.5937652 L18.009049,35.358995 C18.2076962,36.923342 18.6484382,38.3697204 19.331288,39.6981738 C20.0141379,41.0266272 20.8832065,42.1998698 21.9385199,43.2179368 C22.9938333,44.2360039 24.1981141,45.0616191 25.5513984,45.6948071 C26.9046826,46.3279952 28.3510611,46.719076 29.8905771,46.8680615 L29.8905771,22.9560205 L25.1230674,22.9560205 C24.8002657,22.9560205 24.5209222,22.8380755 24.2850286,22.6021819 C24.049135,22.3662883 23.93119,22.0869448 23.93119,21.7641431 C23.93119,21.4413413 24.049135,21.1619978 24.2850286,20.9261042 C24.5209222,20.6902106 24.8002657,20.5722656 25.1230674,20.5722656 L29.9278233,20.5722656 C29.9526542,20.5474347 29.9650695,20.5288118 29.9650695,20.5163964 L29.9650695,20.4605271 C28.9221715,20.2122181 28.0468953,19.6597387 27.3392145,18.8030726 C26.6315338,17.9464064 26.2776987,16.9469775 26.2776987,15.8047559 C26.2776987,14.488718 26.7494788,13.3589288 27.6930531,12.4153545 C28.6366275,11.4717801 29.7664167,11 31.0824546,11 C32.4233234,11 33.5593202,11.4717801 34.4904791,12.4153545 C35.421638,13.3589288 35.8872105,14.488718 35.8872105,15.8047559 C35.8872105,16.9469775 35.539583,17.952614 34.8443177,18.8216956 C34.1490524,19.6907773 33.2675685,20.2494642 32.1998397,20.4977733 L32.1998397,20.5163964 C32.1998397,20.5288118 32.2122549,20.5474347 32.2370858,20.5722656 L37.0418417,20.5722656 C37.3646435,20.5722656 37.643987,20.6902106 37.8798806,20.9261042 C38.1157741,21.1619978 38.2337192,21.4413413 38.2337192,21.7641431 C38.2337192,22.0869448 38.1157741,22.3662883 37.8798806,22.6021819 C37.643987,22.8380755 37.3646435,22.9560205 37.0418417,22.9560205 L32.274332,22.9560205 L32.274332,46.8680615 C33.8138481,46.719076 35.2602265,46.3279952 36.6135108,45.6948071 C37.9667951,45.0616191 39.1710758,44.2360039 40.2263892,43.2179368 C41.2817027,42.1998698 42.1507713,41.0266272 42.8336211,39.6981738 C43.516471,38.3697204 43.9572129,36.923342 44.1558602,35.358995 L40.9154434,37.5937652 C40.7167962,37.7179197 40.499529,37.7675808 40.2636354,37.7427499 C40.0277418,37.717919 39.8477205,37.6061816 39.723566,37.4075344 L39.4628428,37.1468112 C39.3386882,36.923333 39.3076501,36.6936506 39.3697273,36.457757 C39.4318046,36.2218634 39.5621649,36.0418421 39.7608121,35.9176876 L45.1987529,32.2675629 L45.1987529,32.2303168 L45.5712146,32.0068397 C45.6705382,31.932347 45.776068,31.8888936 45.8878071,31.8764781 C45.9995461,31.8640627 46.1050759,31.8702703 46.2043995,31.8951012 C46.328554,31.9199321 46.4340838,31.9633856 46.5209919,32.0254628 C46.6079001,32.0875401 46.6885993,32.1682393 46.763092,32.2675629 L46.9865691,32.6772708 L50.040755,38.3014424 Z M28.6986997,15.8047559 C28.6986997,16.4751903 28.9345898,17.0462925 29.4063769,17.5180797 C29.8781641,17.9898669 30.4368511,18.2257569 31.0824546,18.2257569 C31.752889,18.2257569 32.3301988,17.9898669 32.8144015,17.5180797 C33.2986041,17.0462925 33.5407018,16.4751903 33.5407018,15.8047559 C33.5407018,15.1343215 33.2986041,14.5632193 32.8144015,14.0914321 C32.3301988,13.6196449 31.752889,13.3837549 31.0824546,13.3837549 C30.4368511,13.3837549 29.8781641,13.6196449 29.4063769,14.0914321 C28.9345898,14.5632193 28.6986997,15.1343215 28.6986997,15.8047559 Z" id="Anchor---simple-line-icons" fill="#4E0F41"></path>
        </g>
    </g>
</svg>