<?xml version="1.0" encoding="UTF-8"?>
<svg width="66px" height="66px" viewBox="0 0 66 66" version="1.1" xmlns="http://www.w3.org/2000/svg" xmlns:xlink="http://www.w3.org/1999/xlink">
    <!-- Generator: Sketch 49.1 (51147) - http://www.bohemiancoding.com/sketch -->
    <title>Artboard 2 Copy</title>
    <desc>Created with Sketch.</desc>
    <defs></defs>
    <g id="Artboard-2-Copy" stroke="none" stroke-width="1" fill="none" fill-rule="evenodd">
        <g id="Group-26" transform="translate(2.000000, 2.000000)">
            <circle id="Oval-3-Copy-4" stroke="#4E0F41" stroke-width="3" fill="#FFC000" cx="31.5" cy="31.5" r="31.5"></circle>
            <path d="M21.8125,23.015625 C22.1108413,23.015625 22.3690175,23.1246327 22.5870361,23.3426514 C22.8050548,23.56067 22.9140625,23.8188462 22.9140625,24.1171875 L22.9140625,46.1484375 C22.9140625,46.4467788 22.8050548,46.704955 22.5870361,46.9229736 C22.3690175,47.1409923 22.1108413,47.25 21.8125,47.25 L14.1015625,47.25 C13.8032212,47.25 13.545045,47.1409923 13.3270264,46.9229736 C13.1090077,46.704955 13,46.4467788 13,46.1484375 L13,24.1171875 C13,23.8188462 13.1090077,23.56067 13.3270264,23.3426514 C13.545045,23.1246327 13.8032212,23.015625 14.1015625,23.015625 L21.8125,23.015625 Z M20.7109375,45.046875 L20.7109375,25.21875 L15.203125,25.21875 L15.203125,45.046875 L20.7109375,45.046875 Z M33.9296875,29.5561523 C34.2280288,29.5561523 34.486205,29.66516 34.7042236,29.8831787 C34.9222423,30.1011974 35.03125,30.3593735 35.03125,30.6577148 L35.03125,46.1484375 C35.03125,46.4467788 34.9222423,46.704955 34.7042236,46.9229736 C34.486205,47.1409923 34.2280288,47.25 33.9296875,47.25 L26.21875,47.25 C25.8974593,47.25 25.633546,47.1409923 25.427002,46.9229736 C25.220458,46.704955 25.1171875,46.4467788 25.1171875,46.1484375 L25.1171875,30.6577148 C25.1171875,30.3593735 25.220458,30.1011974 25.427002,29.8831787 C25.633546,29.66516 25.8974593,29.5561523 26.21875,29.5561523 L33.9296875,29.5561523 Z M32.828125,45.046875 L32.828125,31.7592773 L27.3203125,31.7592773 L27.3203125,45.046875 L32.828125,45.046875 Z M46.046875,12 C46.3452163,12 46.6033925,12.1090077 46.8214111,12.3270264 C47.0394298,12.545045 47.1484375,12.8032212 47.1484375,13.1015625 L47.1484375,46.1484375 C47.1484375,46.4467788 47.0394298,46.704955 46.8214111,46.9229736 C46.6033925,47.1409923 46.3452163,47.25 46.046875,47.25 L38.3359375,47.25 C38.0375962,47.25 37.77942,47.1409923 37.5614014,46.9229736 C37.3433827,46.704955 37.234375,46.4467788 37.234375,46.1484375 L37.234375,13.1015625 C37.234375,12.8032212 37.3433827,12.545045 37.5614014,12.3270264 C37.77942,12.1090077 38.0375962,12 38.3359375,12 L46.046875,12 Z M44.9453125,45.046875 L44.9453125,14.203125 L39.4375,14.203125 L39.4375,45.046875 L44.9453125,45.046875 Z" id="Chart---simple-line-icons" fill="#4E0F41"></path>
        </g>
    </g>
</svg>