<?xml version="1.0" encoding="UTF-8"?>
<svg width="66px" height="66px" viewBox="0 0 66 66" version="1.1" xmlns="http://www.w3.org/2000/svg" xmlns:xlink="http://www.w3.org/1999/xlink">
    <!-- Generator: Sketch 49.1 (51147) - http://www.bohemiancoding.com/sketch -->
    <title>Artboard 2 Copy 3</title>
    <desc>Created with Sketch.</desc>
    <defs></defs>
    <g id="Artboard-2-Copy-3" stroke="none" stroke-width="1" fill="none" fill-rule="evenodd">
        <g id="Group-24" transform="translate(2.000000, 2.000000)">
            <circle id="Oval-3-Copy-6" stroke="#4E0F41" stroke-width="3" fill="#FFC000" cx="31.5" cy="31.5" r="31.5"></circle>
            <path d="M39.8385366,41.1970732 L40.8460976,41.7568293 C41.5178082,42.1300019 41.8536585,42.615119 41.8536585,43.2121951 L41.8536585,46.234878 C41.8536585,46.807076 41.6546361,47.2859737 41.2565854,47.6715854 C40.8585346,48.0571971 40.3858564,48.25 39.8385366,48.25 L14.015122,48.25 C13.4678021,48.25 12.9951239,48.0571971 12.5970732,47.6715854 C12.1990224,47.2859737 12,46.807076 12,46.234878 L12,43.2121951 C12,42.6648753 12.3358503,42.1921971 13.007561,41.7941463 L14.015122,41.1970732 L21.7397561,37.017561 C20.3217002,35.8980432 19.3390271,34.4053752 18.7917073,32.5395122 C18.2443875,30.6736492 17.9707317,29.1934201 17.9707317,28.0987805 L17.9707317,23.0609756 C17.9707317,22.2151177 18.2319486,21.375492 18.7543902,20.5420732 C19.2768319,19.7086544 19.9609714,18.9561009 20.8068293,18.2843902 C21.6526872,17.6126796 22.6167019,17.065368 23.6989024,16.642439 C24.781103,16.2195101 25.8695067,16.0080488 26.9641463,16.0080488 C28.0836641,16.0080488 29.1782873,16.2195101 30.2480488,16.642439 C31.3178102,17.065368 32.2693861,17.6126796 33.1028049,18.2843902 C33.9362237,18.9561009 34.6079243,19.7086544 35.1179268,20.5420732 C35.6279294,21.375492 35.8829268,22.2151177 35.8829268,23.0609756 L35.8829268,28.0987805 C35.8829268,29.317811 35.6403683,30.8353568 35.1552439,32.6514634 C34.6701195,34.4675701 33.7309826,35.9353603 32.3378049,37.054878 L39.8385366,41.1970732 Z M39.4653659,45.8617073 L39.4653659,43.7346341 C39.3907313,43.6599996 39.303659,43.5978051 39.2041463,43.5480488 L38.9056098,43.3987805 C38.8807316,43.3987805 38.8496343,43.3863416 38.8123171,43.3614634 C38.7749998,43.3365852 38.7314637,43.3117074 38.6817073,43.2868293 L31.1809756,39.1446341 C30.8326812,38.9456088 30.5465865,38.6781724 30.3226829,38.3423171 C30.0987794,38.0064617 29.9743904,37.6395142 29.9495122,37.2414634 C29.8997558,36.8434126 29.9557309,36.4578067 30.117439,36.0846341 C30.2791471,35.7114615 30.5217057,35.400489 30.845122,35.1517073 C31.8651271,34.3556058 32.5617055,33.2174464 32.934878,31.7371951 C33.3080506,30.2569438 33.4946341,29.0441511 33.4946341,28.0987805 L33.4946341,23.0609756 C33.4946341,22.1902395 32.8415919,21.1951275 31.5354878,20.0756098 C30.2293837,18.956092 28.7056185,18.3963415 26.9641463,18.3963415 C25.2724306,18.3963415 23.7486653,18.956092 22.3928049,20.0756098 C21.0369444,21.1951275 20.3590244,22.1902395 20.3590244,23.0609756 L20.3590244,28.0987805 C20.3590244,29.0441511 20.5829246,30.2569438 21.0307317,31.7371951 C21.4785388,33.2174464 22.2124339,34.3556058 23.232439,35.1517073 C23.5309771,35.400489 23.7610968,35.7114615 23.9228049,36.0846341 C24.084513,36.4578067 24.1404881,36.8434126 24.0907317,37.2414634 C24.0658535,37.6395142 23.9414645,38.0064617 23.717561,38.3423171 C23.4936574,38.6781724 23.2075627,38.9331699 22.8592683,39.1073171 L15.1346341,43.3241463 C15.109756,43.3241463 15.0848782,43.3303658 15.06,43.3428049 C15.0351218,43.355244 15.010244,43.3739023 14.9853659,43.3987805 C14.8858532,43.4236587 14.7801225,43.4734143 14.6681707,43.5480488 L14.3882927,43.7346341 L14.3882927,45.8617073 L39.4653659,45.8617073 Z M48.197561,35.2636585 L49.205122,35.8234146 C49.8768326,36.1965872 50.2126829,36.6817043 50.2126829,37.2787805 L50.2126829,40.2641463 C50.2126829,40.8363443 50.0136605,41.315242 49.6156098,41.7008537 C49.217559,42.0864653 48.7448808,42.2792683 48.197561,42.2792683 L44.2419512,42.2792683 C44.0926822,41.7568267 43.9371959,41.2965874 43.7754878,40.8985366 C43.6137797,40.5004858 43.3587822,40.1646355 43.0104878,39.8909756 L47.8243902,39.8909756 L47.8243902,37.7639024 C47.7497557,37.7141461 47.6626834,37.658171 47.5631707,37.5959756 C47.463658,37.5337802 47.3641468,37.490244 47.2646341,37.4653659 C47.239756,37.4404877 47.2086587,37.4218293 47.1713415,37.4093902 C47.1340242,37.3969512 47.0904881,37.3782928 47.0407317,37.3534146 L39.4280488,33.2112195 C39.0797544,33.0121941 38.7936597,32.7447578 38.5697561,32.4089024 C38.3458525,32.0730471 38.2214635,31.7060996 38.1965854,31.3080488 C38.146829,30.909998 38.2028041,30.5243921 38.3645122,30.1512195 C38.5262203,29.7780469 38.7687789,29.4670744 39.0921951,29.2182927 C40.1122002,28.397313 40.827437,27.2467147 41.2379268,25.7664634 C41.6484167,24.2862121 41.8536585,23.0858583 41.8536585,22.1653659 L41.8536585,17.127561 C41.8536585,16.2319467 41.1819579,15.2243958 39.8385366,14.104878 C38.4951152,12.9853603 36.9526916,12.4256098 35.2112195,12.4256098 C34.3653616,12.4256098 33.5506137,12.5624377 32.7669512,12.8360976 C31.9832888,13.1097575 31.2804909,13.4829245 30.6585366,13.9556098 C30.1858513,13.8063407 29.6882953,13.7192684 29.1658537,13.6943902 C28.643412,13.6695121 28.1334171,13.6446343 27.6358537,13.6197561 C28.5065897,12.599751 29.6260907,11.7414669 30.9943902,11.044878 C32.3626898,10.3482892 33.7682855,10 35.2112195,10 C36.3307373,10 37.43158,10.2176808 38.5137805,10.6530488 C39.595981,11.0884168 40.5599958,11.6419479 41.4058537,12.3136585 C42.2517115,12.9853692 42.935851,13.7441421 43.4582927,14.59 C43.9807343,15.4358579 44.2419512,16.2817031 44.2419512,17.127561 L44.2419512,22.1653659 C44.2419512,23.3595182 43.9807343,24.8708445 43.4582927,26.6993902 C42.935851,28.527936 41.9780557,29.9895067 40.584878,31.0841463 L48.197561,35.2636585 Z" id="People---simple-line-icons" fill="#4E0F41"></path>
        </g>
    </g>
</svg>