<?xml version="1.0" encoding="UTF-8"?>
<svg width="66px" height="66px" viewBox="0 0 66 66" version="1.1" xmlns="http://www.w3.org/2000/svg" xmlns:xlink="http://www.w3.org/1999/xlink">
    <!-- Generator: Sketch 49.1 (51147) - http://www.bohemiancoding.com/sketch -->
    <title>Artboard 2 Copy 2</title>
    <desc>Created with Sketch.</desc>
    <defs></defs>
    <g id="Artboard-2-Copy-2" stroke="none" stroke-width="1" fill="none" fill-rule="evenodd">
        <g id="Group-27" transform="translate(2.000000, 2.000000)">
            <circle id="Oval-3-Copy-5" stroke="#4E0F41" stroke-width="3" fill="#FFC000" cx="31.5" cy="31.5" r="31.5"></circle>
            <path d="M20.8358257,43.6593863 C20.9653278,43.4003822 21.1056196,43.1251944 21.2567053,42.8338147 C21.4077911,42.542435 21.6020413,42.2348722 21.8394618,41.911117 L23.3611036,43.3032574 C23.1668505,43.6270126 23.0265587,43.8860129 22.940224,44.080266 C22.8538892,44.2745191 22.7567641,44.4903527 22.6488457,44.7277731 C22.1308374,45.7853734 21.4293783,46.6109368 20.5444475,47.204488 C19.6595166,47.7980392 17.835723,48.0948104 15.073012,48.0948104 L14.0693759,48.1271857 L14.0370005,47.0587989 C14.0370005,44.4687573 14.3067925,42.7259013 14.8463845,41.8301786 C15.3859765,40.9344559 16.206144,40.2168093 17.3069117,39.6772173 C17.5874995,39.5477152 17.8626873,39.4128193 18.1324833,39.2725253 C18.4022793,39.1322314 18.6882588,38.943377 18.9904303,38.7059566 L20.2530693,40.3247245 C19.8861467,40.6053123 19.5300213,40.8373334 19.1846824,41.0207947 C18.8393436,41.2042559 18.5263849,41.3715269 18.2457971,41.5226127 C17.576703,41.8463679 17.0694941,42.24566 16.7241552,42.7205009 C16.3788164,43.1953419 16.1845662,44.3068847 16.1413988,46.0551628 C17.9544279,45.9904118 19.1091375,45.747599 19.6055621,45.3267173 C20.1019867,44.9058355 20.5120705,44.3500641 20.8358257,43.6593863 Z M36.8616278,21.190888 C38.0055629,21.190888 38.9822097,21.5955759 39.7915977,22.4049639 C40.6009857,23.2143519 41.0056736,24.1909987 41.0056736,25.3349338 C41.0056736,26.4788688 40.6009857,27.4555157 39.7915977,28.2649037 C38.9822097,29.0742917 38.0055629,29.4789796 36.8616278,29.4789796 C35.7176928,29.4789796 34.7410459,29.0742917 33.931658,28.2649037 C33.12227,27.4555157 32.717582,26.4788688 32.717582,25.3349338 C32.717582,24.1909987 33.12227,23.2143519 33.931658,22.4049639 C34.7410459,21.5955759 35.7176928,21.190888 36.8616278,21.190888 Z M36.8616278,27.4069567 C37.4228035,27.4069567 37.908429,27.2019148 38.3185189,26.7918249 C38.7286089,26.381735 38.9336507,25.8961094 38.9336507,25.3349338 C38.9336507,24.7737581 38.7286089,24.2881326 38.3185189,23.8780427 C37.908429,23.4679528 37.4228035,23.2629109 36.8616278,23.2629109 C36.2788685,23.2629109 35.7878471,23.4679528 35.3885491,23.8780427 C34.989251,24.2881326 34.7896049,24.7737581 34.7896049,25.3349338 C34.7896049,25.8961094 34.989251,26.381735 35.3885491,26.7918249 C35.7878471,27.2019148 36.2788685,27.4069567 36.8616278,27.4069567 Z M47.189367,16.0108307 C47.189367,16.0755817 47.2001587,16.4910613 47.2217424,17.257282 C47.243326,18.0235026 47.2217427,18.9623786 47.1569916,20.0739381 C47.0922406,21.1854976 46.9627405,22.3995614 46.7684874,23.7161659 C46.5742342,25.0327703 46.2612756,26.2738133 45.829602,27.439332 C45.4626794,28.4105976 45.041804,29.2793277 44.566963,30.0455483 C44.0921221,30.811769 43.3367046,31.648124 42.300688,32.5546386 C41.5884265,33.202149 40.4876754,33.903608 38.9984015,34.6590368 C37.5091276,35.4144656 36.1817512,36.1267164 35.0162324,36.7958105 C34.5845588,37.0332309 34.1582876,37.265252 33.7374058,37.4918807 C33.3165241,37.7185093 32.9765862,37.9181553 32.717582,38.0908248 L32.717582,43.4327588 C32.717582,43.5838446 32.685207,43.7295322 32.620456,43.8698262 C32.5557049,44.0101201 32.4693715,44.1234327 32.3614531,44.2097674 L28.5087855,48.0300596 C28.4224508,48.1163944 28.3199299,48.1811444 28.2012196,48.2243118 C28.0825094,48.2674791 27.9584051,48.2890625 27.828903,48.2890625 C27.7857356,48.2890625 27.7371731,48.2836667 27.6832139,48.2728748 C27.6292547,48.262083 27.5806921,48.2458955 27.5375248,48.2243118 C27.3648553,48.1811444 27.2137718,48.0894152 27.0842698,47.9491212 C26.9547677,47.8088273 26.8684343,47.652348 26.8252669,47.4796786 L25.5626279,42.1377445 L23.2316022,39.5477159 C22.6704265,38.9217892 22.2063843,38.4091845 21.8394618,38.0098864 C21.4725392,37.6105883 21.1919556,37.2814421 20.9977025,37.022438 L14.8140091,35.5979222 C14.619756,35.5547549 14.4578808,35.4738173 14.3283788,35.355107 C14.1988767,35.2363968 14.1017516,35.0907091 14.0370005,34.9180397 C13.9938332,34.7237866 13.9884373,34.5403281 14.0208129,34.3676586 C14.0531884,34.1949892 14.134126,34.0439057 14.263628,33.9144036 L18.0515449,29.7703578 C18.1594633,29.6624394 18.2781718,29.5815018 18.4076739,29.5275426 C18.5371759,29.4735834 18.6774678,29.4466042 18.8285535,29.4466042 L24.5913672,29.4466042 C24.7640366,29.122849 24.9582869,28.755932 25.1741237,28.3458421 C25.3899605,27.9357521 25.605794,27.504085 25.8216308,27.0508277 C26.3828065,25.9068927 26.9817446,24.7198081 27.6184632,23.4895384 C28.2551817,22.2592686 28.9080782,21.2664342 29.5771723,20.5110054 C30.3541848,19.5829072 31.1743523,18.8113022 32.0376995,18.1961674 C32.9010467,17.5810325 33.8399227,17.0900111 34.8543557,16.7230886 C36.2357112,16.2050803 37.6062543,15.8219757 38.9660261,15.5737634 C40.3257979,15.3255511 41.5452576,15.1636759 42.6244415,15.088133 C43.7036255,15.0125901 44.5723556,14.9856109 45.2306579,15.0071946 L46.2181063,15.03957 C46.4771104,15.0611536 46.6983398,15.1636746 46.8818011,15.3471359 C47.0652624,15.5305971 47.1677833,15.7518265 47.189367,16.0108307 Z M43.8870805,26.6946988 C44.189252,25.874519 44.4266689,25.0057889 44.5993384,24.0884825 C44.7720078,23.1711761 44.9015079,22.270071 44.9878427,21.3851401 C45.0741774,20.5002092 45.1227399,19.6800417 45.1335318,18.9246129 C45.1443236,18.1691841 45.1497195,17.5540585 45.1497195,17.0792175 C44.6964622,17.0792175 44.1245032,17.095405 43.4338255,17.1277806 C42.7431477,17.1601561 41.9715428,17.230302 41.1189874,17.3382204 C40.266432,17.4461388 39.3653269,17.6026181 38.415645,17.8076631 C37.4659631,18.012708 36.5162954,18.2986875 35.5666135,18.6656101 C34.7032663,18.9677816 33.9154738,19.3778653 33.2032124,19.8958736 C32.490951,20.413882 31.8002836,21.0613826 31.1311895,21.8383951 C30.5700138,22.5074892 29.9818674,23.4409693 29.3667325,24.6388636 C28.7515976,25.8367578 28.1850345,26.9536965 27.6670262,27.9897131 C27.3648547,28.5940562 27.0788752,29.1552234 26.8090792,29.6732317 C26.5392832,30.19124 26.2964705,30.6336988 26.0806337,31.0006214 C25.9727153,31.1517072 25.8432151,31.2758115 25.6921294,31.372938 C25.5410436,31.4700646 25.3791684,31.5186271 25.206499,31.5186271 L19.3141839,31.5186271 L16.9831581,33.9791543 L21.7099604,35.0475411 C21.8178788,35.0691248 21.9203997,35.1122915 22.0175263,35.1770426 C22.1146528,35.2417936 22.2063821,35.3173353 22.2927168,35.4036701 C22.4006352,35.5331721 23.0211567,36.2292354 24.1542999,37.4918807 C25.2874431,38.7545259 26.32884,39.9146313 27.2785219,40.9722316 C27.343273,41.0369827 27.3972313,41.1071286 27.4403987,41.1826714 C27.4835661,41.2582143 27.5159411,41.3391519 27.5375248,41.4254866 L28.4440348,45.3429049 L30.6455591,42.9471285 L30.6455591,37.5404437 C30.6455591,37.3893579 30.6779342,37.2436703 30.7426852,37.1033764 C30.8074362,36.9630824 30.9045613,36.8389781 31.0340634,36.7310597 C31.2283165,36.5583903 31.5736502,36.3317651 32.0700749,36.0511772 C32.5664995,35.7705894 33.2140002,35.414464 34.0125963,34.9827904 C35.0701967,34.3784474 36.3274272,33.7039675 37.7843255,32.9593305 C39.2412239,32.2146936 40.2934125,31.5617971 40.9409229,31.0006214 C41.8042701,30.2236089 42.4301875,29.5275457 42.8186937,28.9124108 C43.2071999,28.2972759 43.5633253,27.558046 43.8870805,26.6946988 Z" id="Rocket---simple-line-icons" fill="#4E0F41"></path>
        </g>
    </g>
</svg>