<?xml version="1.0" encoding="UTF-8"?>
<svg width="66px" height="66px" viewBox="0 0 66 66" version="1.1" xmlns="http://www.w3.org/2000/svg" xmlns:xlink="http://www.w3.org/1999/xlink">
    <!-- Generator: Sketch 49.1 (51147) - http://www.bohemiancoding.com/sketch -->
    <title>Artboard 2 Copy 5</title>
    <desc>Created with Sketch.</desc>
    <defs></defs>
    <g id="Artboard-2-Copy-5" stroke="none" stroke-width="1" fill="none" fill-rule="evenodd">
        <g id="Group-22" transform="translate(2.000000, 2.000000)">
            <circle id="Oval-3-Copy-8" stroke="#4E0F41" stroke-width="3" fill="#FFC000" cx="31.5" cy="31.5" r="31.5"></circle>
            <path d="M53,29.4199219 C53,29.7669288 52.879884,30.0672188 52.6396484,30.3208008 C52.3994129,30.5743828 52.0924498,30.7011719 51.71875,30.7011719 L33.7412109,30.7011719 L33.7412109,43.6738281 C33.7412109,45.4088628 33.1272848,46.8969665 31.8994141,48.1381836 C30.6715433,49.3794007 29.1767666,50 27.4150391,50 C25.6800043,50 24.1919007,49.3794007 22.9506836,48.1381836 C21.7094665,46.8969665 21.0888672,45.4088628 21.0888672,43.6738281 C21.0888672,43.3268212 21.2156563,43.0265312 21.4692383,42.7729492 C21.7228203,42.5193672 22.0231102,42.3925781 22.3701172,42.3925781 C22.7171241,42.3925781 23.0174141,42.5193672 23.2709961,42.7729492 C23.5245781,43.0265312 23.6513672,43.3268212 23.6513672,43.6738281 C23.6513672,44.714849 24.0183883,45.6023726 24.7524414,46.3364258 C25.4864946,47.0704789 26.3740182,47.4375 27.4150391,47.4375 C28.4560599,47.4375 29.3502567,47.0704789 30.0976562,46.3364258 C30.8450558,45.6023726 31.21875,44.714849 31.21875,43.6738281 L31.21875,30.7011719 L13.28125,30.7011719 C12.9075502,30.7011719 12.6005871,30.5743828 12.3603516,30.3208008 C12.120116,30.0672188 12,29.7669288 12,29.4199219 C12,26.9374876 12.4404253,24.6953225 13.3212891,22.6933594 C14.2021528,20.6913962 15.4633707,18.9764069 17.1049805,17.5483398 C18.7465902,16.1202728 20.7551965,14.9991903 23.1308594,14.1850586 C25.5065223,13.3709269 28.2024589,12.9104823 31.21875,12.8037109 L31.21875,10.28125 C31.21875,9.93424306 31.338866,9.63395309 31.5791016,9.38037109 C31.8193371,9.1267891 32.1263002,9 32.5,9 C32.8470069,9 33.1406238,9.1267891 33.3808594,9.38037109 C33.621095,9.63395309 33.7412109,9.93424306 33.7412109,10.28125 L33.7412109,12.8037109 C36.7575021,12.9104823 39.4534386,13.3709269 41.8291016,14.1850586 C44.2047645,14.9991903 46.2200438,16.1202728 47.875,17.5483398 C49.5299562,18.9764069 50.7978472,20.6913962 51.6787109,22.6933594 C52.5595747,24.6953225 53,26.9374876 53,29.4199219 Z M50.3974609,28.1386719 C50.2373039,26.1100159 49.7168013,24.3082761 48.8359375,22.7333984 C47.9550737,21.1585208 46.7539139,19.8238987 45.2324219,18.7294922 C43.7109299,17.6350857 41.8758245,16.7942738 39.7270508,16.2070312 C37.578277,15.6197887 35.1692842,15.3261719 32.5,15.3261719 C29.804023,15.3261719 27.3816839,15.6197887 25.2329102,16.2070312 C23.0841364,16.7942738 21.249031,17.6350857 19.7275391,18.7294922 C18.2060471,19.8238987 17.0115603,21.1585208 16.144043,22.7333984 C15.2765256,24.3082761 14.7626961,26.1100159 14.6025391,28.1386719 L50.3974609,28.1386719 Z" id="Umbrella---simple-line-icons" fill="#4E0F41"></path>
        </g>
    </g>
</svg>